General
Complete name                            : Dragon_Tales_Say_Hola_to_Enrique_2005_NTSC_DVD5.iso
Format                                   : DVD Video
Format profile                           : Menu / Program / Cell
File size                                : 4.12 GiB
Duration                                 : 1 h 7 min 14 s
Overall bit rate mode                    : Variable
Overall bit rate                         : 8 764 kbps
Universal Product Code (UPC)             : 043396081130
Original release date                    : 2006-01-24
Encoded date                             : UTC 2005-11-28 14:32:10

Video
ID                                       : 224 (0xE0)
Format                                   : MPEG Video
Format version                           : Version 2
Format profile                           : Main@Main
Format settings                          : BVOP
Format settings, BVOP                    : Yes
Format settings, Matrix                  : Custom
Format settings, GOP                     : Variable
Duration                                 : 1 h 7 min 14 s
Bit rate mode                            : Variable
Bit rate                                 : 5 200 kbps
Maximum bit rate                         : 8 500 kbps
Width                                    : 720 pixels
Height                                   : 480 pixels
Display aspect ratio                     : 4:3
Frame rate                               : 29.970 (30000/1001) FPS
Standard                                 : NTSC
Color space                              : YUV
Chroma subsampling                       : 4:2:0
Bit depth                                : 8 bits
Scan type                                : Interlaced
Scan order                               : Bottom Field First
Compression mode                         : Lossy
Stream size                              : 2.45 GiB (60%)
Color primaries                          : BT.601 NTSC
Transfer characteristics                 : BT.601 NTSC
Matrix coefficients                      : BT.601 NTSC

Audio #1
ID                                       : 189 (0xBD)-128 (0x80)
Format                                   : AC-3
Format/Info                              : Audio Coding 3
Commercial name                          : Dolby Digital
Muxing mode                              : DVD-Video
Duration                                 : 1 h 7 min 14 s
Bit rate mode                            : Constant
Bit rate                                 : 192 kbps
Channel(s)                               : 2 channels
Channel layout                           : L R
Sampling rate                            : 48.0 kHz
Frame rate                               : 31.250 FPS (1536 SPF)
Bit depth                                : 16 bits
Compression mode                         : Lossy
Stream size                              : 92.3 MiB (2%)
Language                                 : English
Service kind                             : Complete Main

Audio #2
ID                                       : 189 (0xBD)-129 (0x81)
Format                                   : AC-3
Format/Info                              : Audio Coding 3
Commercial name                          : Dolby Digital
Muxing mode                              : DVD-Video
Duration                                 : 1 h 7 min 14 s
Bit rate mode                            : Constant
Bit rate                                 : 192 kbps
Channel(s)                               : 2 channels
Channel layout                           : L R
Sampling rate                            : 48.0 kHz
Frame rate                               : 31.250 FPS (1536 SPF)
Bit depth                                : 16 bits
Compression mode                         : Lossy
Stream size                              : 92.3 MiB (2%)
Language                                 : Spanish
Service kind                             : Complete Main

Text #1
ID                                       : 224 (0xE0)-CC1
Format                                   : EIA-608
Muxing mode                              : DVD-Video / Lead in
Duration                                 : 1 h 7 min 14 s
Bit rate mode                            : Constant
Stream size                              : 0.00 Byte (0%)
Language                                 : English
CaptionServiceName                       : CC1

Text #2
ID                                       : 189 (0xBD)-32 (0x20)
Format                                   : RLE
Format/Info                              : Run-length encoding
Muxing mode                              : DVD-Video
Duration                                 : 1 h 7 min 14 s
Language                                 : Spanish

Menu
Format                                   : DVD-Video
Duration                                 : 1 h 7 min 14 s
PlayMode                                 : Sequential